<svg xmlns="http://www.w3.org/2000/svg" xmlns:xlink="http://www.w3.org/1999/xlink" viewBox="11.89 25.11 170.18 83"><defs><style>.cls-1{fill:none;}.cls-2{fill:#4a60ac;}.cls-3{fill:url(#linear-gradient);}.cls-4{fill:url(#linear-gradient-2);}.cls-5{fill:url(#linear-gradient-3);}</style><linearGradient id="linear-gradient" x1="11.89" y1="58.31" x2="174.55" y2="58.31" gradientUnits="userSpaceOnUse"><stop offset="0" stop-color="#8ed8f8"/><stop offset="0.46" stop-color="#80a8d9"/><stop offset="1" stop-color="#4a60ac"/></linearGradient><linearGradient id="linear-gradient-2" x1="122.95" y1="45.33" x2="182.07" y2="45.33" gradientUnits="userSpaceOnUse"><stop offset="0" stop-color="#939598"/><stop offset="1" stop-color="#bcbec0"/></linearGradient><linearGradient id="linear-gradient-3" x1="11.88" y1="58.31" x2="71.03" y2="58.31" gradientUnits="userSpaceOnUse"><stop offset="0" stop-color="#fcb43e"/><stop offset="1" stop-color="#f15624"/></linearGradient></defs><title>AlternativeLogo</title><g id="Layer_2" data-name="Layer 2"><g id="Layer_1-2" data-name="Layer 1"><rect class="cls-1" width="193.96" height="133.19"/><path class="cls-2" d="M123,79a33.17,33.17,0,0,1-44.71,6.71v15.19a7.21,7.21,0,1,1-14.42,0V85.68A32.77,32.77,0,0,0,71,79a33.24,33.24,0,0,0,7.21-20v-.29a18.75,18.75,0,0,0,37.5-.38A33.1,33.1,0,0,0,123,79Z"/><path class="cls-3" d="M172.46,81.68a34.1,34.1,0,0,1-4.81,4,33.07,33.07,0,0,1-18.6,5.79h-.27a33,33,0,0,1-23.23-9.63A33.58,33.58,0,0,1,123,79a33.1,33.1,0,0,1-7.21-20.65h0a18.75,18.75,0,0,0-37.5-.4V59A33.24,33.24,0,0,1,71,79a32.77,32.77,0,0,1-7.21,6.72,33.35,33.35,0,0,1-18,5.8H44.34A33,33,0,0,1,30.27,88a33.66,33.66,0,0,1-4-2.32A33.21,33.21,0,0,1,11.89,59V57.63a33.27,33.27,0,0,1,14.42-26.7,33.4,33.4,0,0,1,18.09-5.8h1.34a33.22,33.22,0,0,1,14.12,3.48,7.24,7.24,0,0,1,4,5.71v1.51a7.44,7.44,0,0,1-.72,2.46,7.21,7.21,0,0,1-9.38,3.38l-.29-.15-.31-.15A18.77,18.77,0,0,0,26.31,57.94v.71a18.76,18.76,0,0,0,37.51,0v-.08h0v-.51A33,33,0,0,1,71,37.65a33.54,33.54,0,0,1,7.21-6.71,33.17,33.17,0,0,1,51.92,27.37h0a18.75,18.75,0,0,0,32,13.23l0,0,0,0a7.21,7.21,0,0,1,10.22,10.18Z"/><path class="cls-4" d="M182.07,57.23v2.14a32.74,32.74,0,0,1-.77,6.15H148.91a7.21,7.21,0,0,1,0-14.42h17.32a18.76,18.76,0,0,0-36.07,7.21A33,33,0,0,0,123,37.65a34,34,0,0,1,2.42-2.71,33.11,33.11,0,0,1,46.91-.18,33.05,33.05,0,0,1,9,16.34A32.54,32.54,0,0,1,182.07,57.23Z"/><path class="cls-5" d="M70.28,79.49a7.11,7.11,0,0,1-1,1.56l-.42.43a33.18,33.18,0,1,1-9-52.87,7.22,7.22,0,0,1-6.14,13.06l-.29-.15-.31-.15a18.75,18.75,0,1,0,5.34,30.07c.1-.11.2-.22.31-.32a7.22,7.22,0,0,1,11.51,8.37Z"/></g></g></svg>